<svg width="168" height="124" viewBox="0 0 168 124" fill="none" xmlns="http://www.w3.org/2000/svg">
<g clip-path="url(#clip0)">
<path d="M45.5 71.5H41V76H27.5V69.25H32V64.75H27.5V53.5C27.5 52.3065 27.0259 51.1619 26.182 50.318C25.3381 49.4741 24.1935 49 23 49H5V44.5H0.5V62.5H5V58H18.5V64.75H14V69.25H18.5V80.5C18.5 81.6935 18.9741 82.8381 19.818 83.682C20.6619 84.5259 21.8065 85 23 85H41V89.5H45.5" fill="#0000000a"/>
<path d="M86.5 98.5H82V103H68.5V96.25H73V91.75H68.5V80.5C68.5 79.3065 68.0259 78.1619 67.182 77.318C66.3381 76.4741 65.1935 76 64 76H46V71.5H41.5V89.5H46V85H59.5V91.75H55V96.25H59.5V107.5C59.5 108.694 59.9741 109.838 60.818 110.682C61.6619 111.526 62.8065 112 64 112H82V116.5H86.5" fill="#0000000a"/>
<path d="M45.5 31.5H41V36H27.5V29.25H32V24.75H27.5V13.5C27.5 12.3065 27.0259 11.1619 26.182 10.318C25.3381 9.47411 24.1935 9 23 9H5V4.5H0.5V22.5H5V18H18.5V24.75H14V29.25H18.5V40.5C18.5 41.6935 18.9741 42.8381 19.818 43.682C20.6619 44.5259 21.8065 45 23 45H41V49.5H45.5" fill="#0000000a"/>
<path d="M86.5 58.5H82V63H68.5V56.25H73V51.75H68.5V40.5C68.5 39.3065 68.0259 38.1619 67.182 37.318C66.3381 36.4741 65.1935 36 64 36H46V31.5H41.5V49.5H46V45H59.5V51.75H55V56.25H59.5V67.5C59.5 68.6935 59.9741 69.8381 60.818 70.682C61.6619 71.5259 62.8065 72 64 72H82V76.5H86.5" fill="#0000000a"/>
<path d="M45.5 71.5H41V76H27.5V69.25H32V64.75H27.5V53.5C27.5 52.3065 27.0259 51.1619 26.182 50.318C25.3381 49.4741 24.1935 49 23 49H5V44.5H0.5V62.5H5V58H18.5V64.75H14V69.25H18.5V80.5C18.5 81.6935 18.9741 82.8381 19.818 83.682C20.6619 84.5259 21.8065 85 23 85H41V89.5H45.5" fill="#0000000a"/>
<path d="M86.5 98.5H82V103H68.5V96.25H73V91.75H68.5V80.5C68.5 79.3065 68.0259 78.1619 67.182 77.318C66.3381 76.4741 65.1935 76 64 76H46V71.5H41.5V89.5H46V85H59.5V91.75H55V96.25H59.5V107.5C59.5 108.694 59.9741 109.838 60.818 110.682C61.6619 111.526 62.8065 112 64 112H82V116.5H86.5" fill="#0000000a"/>
<path d="M45.5 31.5H41V36H27.5V29.25H32V24.75H27.5V13.5C27.5 12.3065 27.0259 11.1619 26.182 10.318C25.3381 9.47411 24.1935 9 23 9H5V4.5H0.5V22.5H5V18H18.5V24.75H14V29.25H18.5V40.5C18.5 41.6935 18.9741 42.8381 19.818 43.682C20.6619 44.5259 21.8065 45 23 45H41V49.5H45.5" fill="#0000000a"/>
<path d="M86.5 58.5H82V63H68.5V56.25H73V51.75H68.5V40.5C68.5 39.3065 68.0259 38.1619 67.182 37.318C66.3381 36.4741 65.1935 36 64 36H46V31.5H41.5V49.5H46V45H59.5V51.75H55V56.25H59.5V67.5C59.5 68.6935 59.9741 69.8381 60.818 70.682C61.6619 71.5259 62.8065 72 64 72H82V76.5H86.5" fill="#0000000a"/>
</g>
<g clip-path="url(#clip1)">
<path d="M122.5 71.5H127V76H140.5V69.25H136V64.75H140.5V53.5C140.5 52.3065 140.974 51.1619 141.818 50.318C142.662 49.4741 143.806 49 145 49H163V44.5H167.5V62.5H163V58H149.5V64.75H154V69.25H149.5V80.5C149.5 81.6935 149.026 82.8381 148.182 83.682C147.338 84.5259 146.194 85 145 85H127V89.5H122.5" fill="#0000000a"/>
<path d="M81.5 98.5H86V103H99.5V96.25H95V91.75H99.5V80.5C99.5 79.3065 99.9741 78.1619 100.818 77.318C101.662 76.4741 102.806 76 104 76H122V71.5H126.5V89.5H122V85H108.5V91.75H113V96.25H108.5V107.5C108.5 108.694 108.026 109.838 107.182 110.682C106.338 111.526 105.194 112 104 112H86V116.5H81.5" fill="#0000000a"/>
<path d="M122.5 31.5H127V36H140.5V29.25H136V24.75H140.5V13.5C140.5 12.3065 140.974 11.1619 141.818 10.318C142.662 9.47411 143.806 9 145 9H163V4.5H167.5V22.5H163V18H149.5V24.75H154V29.25H149.5V40.5C149.5 41.6935 149.026 42.8381 148.182 43.682C147.338 44.5259 146.194 45 145 45H127V49.5H122.5" fill="#0000000a"/>
<path d="M81.5 58.5H86V63H99.5V56.25H95V51.75H99.5V40.5C99.5 39.3065 99.9741 38.1619 100.818 37.318C101.662 36.4741 102.806 36 104 36H122V31.5H126.5V49.5H122V45H108.5V51.75H113V56.25H108.5V67.5C108.5 68.6935 108.026 69.8381 107.182 70.682C106.338 71.5259 105.194 72 104 72H86V76.5H81.5" fill="#0000000a"/>
<path d="M122.5 71.5H127V76H140.5V69.25H136V64.75H140.5V53.5C140.5 52.3065 140.974 51.1619 141.818 50.318C142.662 49.4741 143.806 49 145 49H163V44.5H167.5V62.5H163V58H149.5V64.75H154V69.25H149.5V80.5C149.5 81.6935 149.026 82.8381 148.182 83.682C147.338 84.5259 146.194 85 145 85H127V89.5H122.5" fill="#0000000a"/>
<path d="M81.5 98.5H86V103H99.5V96.25H95V91.75H99.5V80.5C99.5 79.3065 99.9741 78.1619 100.818 77.318C101.662 76.4741 102.806 76 104 76H122V71.5H126.5V89.5H122V85H108.5V91.75H113V96.25H108.5V107.5C108.5 108.694 108.026 109.838 107.182 110.682C106.338 111.526 105.194 112 104 112H86V116.5H81.5" fill="#0000000a"/>
<path d="M122.5 31.5H127V36H140.5V29.25H136V24.75H140.5V13.5C140.5 12.3065 140.974 11.1619 141.818 10.318C142.662 9.47411 143.806 9 145 9H163V4.5H167.5V22.5H163V18H149.5V24.75H154V29.25H149.5V40.5C149.5 41.6935 149.026 42.8381 148.182 43.682C147.338 44.5259 146.194 45 145 45H127V49.5H122.5" fill="#0000000a"/>
<path d="M81.5 58.5H86V63H99.5V56.25H95V51.75H99.5V40.5C99.5 39.3065 99.9741 38.1619 100.818 37.318C101.662 36.4741 102.806 36 104 36H122V31.5H126.5V49.5H122V45H108.5V51.75H113V56.25H108.5V67.5C108.5 68.6935 108.026 69.8381 107.182 70.682C106.338 71.5259 105.194 72 104 72H86V76.5H81.5" fill="#0000000a"/>
</g>
<defs>
<clipPath id="clip0">
</clipPath>
<clipPath id="clip1">
</clipPath>
</defs>
</svg>
