<svg width="333" height="81" viewBox="0 0 333 81" fill="none" xmlns="http://www.w3.org/2000/svg">
<path d="M31.616 14.8C35.088 14.8 38.0933 15.3787 40.632 16.536C43.208 17.6933 45.1867 19.336 46.568 21.464C47.9493 23.592 48.64 26.112 48.64 29.024C48.64 31.8987 47.9493 34.4187 46.568 36.584C45.1867 38.712 43.208 40.3547 40.632 41.512C38.0933 42.632 35.088 43.192 31.616 43.192H23.72V54H14.648V14.8H31.616ZM31.112 35.8C33.8373 35.8 35.9093 35.2213 37.328 34.064C38.7467 32.8693 39.456 31.1893 39.456 29.024C39.456 26.8213 38.7467 25.1413 37.328 23.984C35.9093 22.7893 33.8373 22.192 31.112 22.192H23.72V35.8H31.112ZM55.1168 14.8H64.1888V54H55.1168V14.8ZM90.4598 14.8C93.9318 14.8 96.9371 15.3787 99.4758 16.536C102.052 17.6933 104.03 19.336 105.412 21.464C106.793 23.592 107.484 26.112 107.484 29.024C107.484 31.8987 106.793 34.4187 105.412 36.584C104.03 38.712 102.052 40.3547 99.4758 41.512C96.9371 42.632 93.9318 43.192 90.4598 43.192H82.5638V54H73.4918V14.8H90.4598ZM89.9558 35.8C92.6811 35.8 94.7531 35.2213 96.1718 34.064C97.5904 32.8693 98.2998 31.1893 98.2998 29.024C98.2998 26.8213 97.5904 25.1413 96.1718 23.984C94.7531 22.7893 92.6811 22.192 89.9558 22.192H82.5638V35.8H89.9558ZM144.312 46.72V54H113.961V14.8H143.585V22.08H122.977V30.592H141.177V37.648H122.977V46.72H144.312ZM151.531 14.8H160.603V46.608H180.259V54H151.531V14.8ZM185.328 14.8H194.4V54H185.328V14.8ZM239.655 14.8V54H232.207L212.663 30.2V54H203.703V14.8H211.207L230.695 38.6V14.8H239.655ZM279.281 46.72V54H248.929V14.8H278.553V22.08H257.945V30.592H276.145V37.648H257.945V46.72H279.281Z" fill="white"/>
<path d="M328.5 39.5H324V44H310.5V37.25H315V32.75H310.5V21.5C310.5 20.3065 310.026 19.1619 309.182 18.318C308.338 17.4741 307.193 17 306 17H288V12.5H283.5V30.5H288V26H301.5V32.75H297V37.25H301.5V48.5C301.5 49.6935 301.974 50.8381 302.818 51.682C303.662 52.5259 304.807 53 306 53H324V57.5H328.5" fill="white"/>
</svg>
