<svg width="393" height="81" viewBox="0 0 393 81" fill="none" xmlns="http://www.w3.org/2000/svg">
<path d="M21.616 14.8C25.088 14.8 28.0933 15.3787 30.632 16.536C33.208 17.6933 35.1867 19.336 36.568 21.464C37.9493 23.592 38.64 26.112 38.64 29.024C38.64 31.8987 37.9493 34.4187 36.568 36.584C35.1867 38.712 33.208 40.3547 30.632 41.512C28.0933 42.632 25.088 43.192 21.616 43.192H13.72V54H4.648V14.8H21.616ZM21.112 35.8C23.8373 35.8 25.9093 35.2213 27.328 34.064C28.7467 32.8693 29.456 31.1893 29.456 29.024C29.456 26.8213 28.7467 25.1413 27.328 23.984C25.9093 22.7893 23.8373 22.192 21.112 22.192H13.72V35.8H21.112ZM45.1168 14.8H54.1888V54H45.1168V14.8ZM80.4598 14.8C83.9318 14.8 86.9371 15.3787 89.4758 16.536C92.0518 17.6933 94.0304 19.336 95.4118 21.464C96.7931 23.592 97.4838 26.112 97.4838 29.024C97.4838 31.8987 96.7931 34.4187 95.4118 36.584C94.0304 38.712 92.0518 40.3547 89.4758 41.512C86.9371 42.632 83.9318 43.192 80.4598 43.192H72.5638V54H63.4918V14.8H80.4598ZM79.9558 35.8C82.6811 35.8 84.7531 35.2213 86.1718 34.064C87.5904 32.8693 88.2998 31.1893 88.2998 29.024C88.2998 26.8213 87.5904 25.1413 86.1718 23.984C84.7531 22.7893 82.6811 22.192 79.9558 22.192H72.5638V35.8H79.9558ZM134.312 46.72V54H103.961V14.8H133.585V22.08H112.977V30.592H131.177V37.648H112.977V46.72H134.312ZM141.531 14.8H150.603V46.608H170.259V54H141.531V14.8ZM175.328 14.8H184.4V54H175.328V14.8ZM229.655 14.8V54H222.207L202.663 30.2V54H193.703V14.8H201.207L220.695 38.6V14.8H229.655ZM269.281 46.72V54H238.929V14.8H268.553V22.08H247.945V30.592H266.145V37.648H247.945V46.72H269.281Z" fill="white"/>
<path d="M320.5 39.5H316V44H302.5V37.25H307V32.75H302.5V21.5C302.5 20.3065 302.026 19.1619 301.182 18.318C300.338 17.4741 299.193 17 298 17H280V12.5H275.5V30.5H280V26H293.5V32.75H289V37.25H293.5V48.5C293.5 49.6935 293.974 50.8381 294.818 51.682C295.662 52.5259 296.807 53 298 53H316V57.5H320.5" fill="white"/>
</svg>
