<svg width="335" height="90" viewBox="0 0 335 90" fill="none" xmlns="http://www.w3.org/2000/svg">
<path d="M31.616 25.8C35.088 25.8 38.0933 26.3787 40.632 27.536C43.208 28.6933 45.1867 30.336 46.568 32.464C47.9493 34.592 48.64 37.112 48.64 40.024C48.64 42.8987 47.9493 45.4187 46.568 47.584C45.1867 49.712 43.208 51.3547 40.632 52.512C38.0933 53.632 35.088 54.192 31.616 54.192H23.72V65H14.648V25.8H31.616ZM31.112 46.8C33.8373 46.8 35.9093 46.2213 37.328 45.064C38.7467 43.8693 39.456 42.1893 39.456 40.024C39.456 37.8213 38.7467 36.1413 37.328 34.984C35.9093 33.7893 33.8373 33.192 31.112 33.192H23.72V46.8H31.112ZM55.1168 25.8H64.1888V65H55.1168V25.8ZM90.4598 25.8C93.9318 25.8 96.9371 26.3787 99.4758 27.536C102.052 28.6933 104.03 30.336 105.412 32.464C106.793 34.592 107.484 37.112 107.484 40.024C107.484 42.8987 106.793 45.4187 105.412 47.584C104.03 49.712 102.052 51.3547 99.4758 52.512C96.9371 53.632 93.9318 54.192 90.4598 54.192H82.5638V65H73.4918V25.8H90.4598ZM89.9558 46.8C92.6811 46.8 94.7531 46.2213 96.1718 45.064C97.5904 43.8693 98.2998 42.1893 98.2998 40.024C98.2998 37.8213 97.5904 36.1413 96.1718 34.984C94.7531 33.7893 92.6811 33.192 89.9558 33.192H82.5638V46.8H89.9558ZM144.312 57.72V65H113.961V25.8H143.585V33.08H122.977V41.592H141.177V48.648H122.977V57.72H144.312ZM151.531 25.8H160.603V57.608H180.259V65H151.531V25.8ZM185.328 25.8H194.4V65H185.328V25.8ZM239.655 25.8V65H232.207L212.663 41.2V65H203.703V25.8H211.207L230.695 49.6V25.8H239.655ZM279.281 57.72V65H248.929V25.8H278.553V33.08H257.945V41.592H276.145V48.648H257.945V57.72H279.281Z" fill="white"/>
<path d="M330.5 51.5H326V56H312.5V49.25H317V44.75H312.5V33.5C312.5 32.3065 312.026 31.1619 311.182 30.318C310.338 29.4741 309.193 29 308 29H290V24.5H285.5V42.5H290V38H303.5V44.75H299V49.25H303.5V60.5C303.5 61.6935 303.974 62.8381 304.818 63.682C305.662 64.5259 306.807 65 308 65H326V69.5H330.5" fill="white"/>
</svg>
